<?xml version="1.0" encoding="UTF-8"?>
<svg viewBox="0 0 120 120" xmlns="http://www.w3.org/2000/svg">
                <circle cx="60" cy="60" r="40" fill="rgba(110,145,180,0.04)"/>
                <line x1="60" y1="30" x2="60" y2="90" stroke="rgba(110,145,180,0.2)" stroke-width="0.8"/>
                <circle cx="30" cy="35" r="2" fill="rgba(110,145,180,0.4)"/>
                <circle cx="30" cy="90" r="2" fill="rgba(110,145,180,0.35)"/>
                <line x1="30" y1="35" x2="60" y2="30" stroke="rgba(110,145,180,0.15)" stroke-width="0.6"/>
                <line x1="30" y1="90" x2="60" y2="90" stroke="rgba(110,145,180,0.12)" stroke-width="0.6"/>
                <line x1="30" y1="35" x2="30" y2="90" stroke="rgba(110,145,180,0.12)" stroke-width="0.6"/>
                <circle cx="90" cy="35" r="2" fill="rgba(110,145,180,0.4)"/>
                <circle cx="90" cy="90" r="2" fill="rgba(110,145,180,0.35)"/>
                <line x1="90" y1="35" x2="60" y2="30" stroke="rgba(110,145,180,0.15)" stroke-width="0.6"/>
                <line x1="90" y1="90" x2="60" y2="90" stroke="rgba(110,145,180,0.12)" stroke-width="0.6"/>
                <line x1="90" y1="35" x2="90" y2="90" stroke="rgba(110,145,180,0.12)" stroke-width="0.6"/>
                <line x1="36" y1="48" x2="54" y2="48" stroke="rgba(110,145,180,0.12)" stroke-width="0.5"/>
                <line x1="36" y1="56" x2="52" y2="56" stroke="rgba(110,145,180,0.1)" stroke-width="0.5"/>
                <line x1="36" y1="64" x2="54" y2="64" stroke="rgba(110,145,180,0.08)" stroke-width="0.5"/>
                <circle cx="72" cy="48" r="1" fill="rgba(225,185,145,0.4)"/>
                <circle cx="84" cy="48" r="1" fill="rgba(110,145,180,0.4)"/>
                <line x1="73" y1="48" x2="83" y2="48" stroke="rgba(160,165,160,0.15)" stroke-width="0.5" stroke-dasharray="2 1">
                    <animate attributeName="stroke-dashoffset" values="3;0" dur="1.5s" repeatCount="indefinite"/>
                </line>
                <circle cx="72" cy="58" r="1" fill="rgba(225,185,145,0.35)"/>
                <circle cx="84" cy="58" r="1" fill="rgba(110,145,180,0.35)"/>
                <line x1="73" y1="58" x2="83" y2="58" stroke="rgba(160,165,160,0.12)" stroke-width="0.5" stroke-dasharray="2 1">
                    <animate attributeName="stroke-dashoffset" values="3;0" dur="1.7s" repeatCount="indefinite"/>
                </line>
</svg>
