<?xml version="1.0" encoding="UTF-8"?>
<svg viewBox="0 0 120 120" xmlns="http://www.w3.org/2000/svg">
                <circle cx="60" cy="60" r="42" fill="rgba(110,145,180,0.04)"/>
                <circle cx="30" cy="48" r="2.5" fill="rgba(110,145,180,0.6)">
                    <animate attributeName="r" values="2.5;2.8;2.5" dur="3s" repeatCount="indefinite"/>
                </circle>
                <circle cx="22" cy="62" r="2" fill="rgba(110,145,180,0.4)"/>
                <circle cx="35" cy="70" r="1.5" fill="rgba(110,145,180,0.35)"/>
                <circle cx="32" cy="38" r="1.5" fill="rgba(110,145,180,0.3)"/>
                <line x1="30" y1="48" x2="22" y2="62" stroke="rgba(110,145,180,0.15)" stroke-width="0.6"/>
                <line x1="30" y1="48" x2="35" y2="70" stroke="rgba(110,145,180,0.12)" stroke-width="0.6"/>
                <line x1="30" y1="48" x2="32" y2="38" stroke="rgba(110,145,180,0.15)" stroke-width="0.6"/>
                <circle cx="90" cy="52" r="2.5" fill="rgba(110,145,180,0.6)">
                    <animate attributeName="r" values="2.5;2.8;2.5" dur="3.2s" repeatCount="indefinite"/>
                </circle>
                <circle cx="98" cy="65" r="2" fill="rgba(110,145,180,0.4)"/>
                <circle cx="85" cy="72" r="1.5" fill="rgba(110,145,180,0.35)"/>
                <circle cx="88" cy="40" r="1.5" fill="rgba(110,145,180,0.3)"/>
                <line x1="90" y1="52" x2="98" y2="65" stroke="rgba(110,145,180,0.15)" stroke-width="0.6"/>
                <line x1="90" y1="52" x2="85" y2="72" stroke="rgba(110,145,180,0.12)" stroke-width="0.6"/>
                <line x1="90" y1="52" x2="88" y2="40" stroke="rgba(110,145,180,0.15)" stroke-width="0.6"/>
                <circle cx="60" cy="58" r="4.5" fill="rgba(110,145,180,0.12)" stroke="rgba(110,145,180,0.35)" stroke-width="0.8">
                    <animate attributeName="r" values="4.5;5.5;4.5" dur="2.5s" repeatCount="indefinite"/>
                </circle>
                <circle cx="60" cy="58" r="1.8" fill="rgba(110,145,180,0.6)"/>
                <line x1="30" y1="48" x2="60" y2="58" stroke="rgba(110,145,180,0.12)" stroke-width="0.5"/>
                <line x1="90" y1="52" x2="60" y2="58" stroke="rgba(110,145,180,0.12)" stroke-width="0.5"/>
                <line x1="35" y1="70" x2="60" y2="80" stroke="rgba(110,145,180,0.18)" stroke-width="0.7" stroke-dasharray="3 2">
                    <animate attributeName="stroke-dashoffset" values="5;0" dur="2s" repeatCount="indefinite"/>
                </line>
                <line x1="60" y1="80" x2="85" y2="72" stroke="rgba(110,145,180,0.18)" stroke-width="0.7" stroke-dasharray="3 2">
                    <animate attributeName="stroke-dashoffset" values="5;0" dur="2s" repeatCount="indefinite"/>
                </line>
</svg>
